#!OML:ASF F:\VICON\USERDATA\INSTALL\rory3\rory3.ASF
:FULLY-SPECIFIED
:DEGREES
2111
root 0.634317 16.6458 -2.33436 6.5021 3.38436 -0.426524
lowerback 24.5128 -0.0869638 0.915444
upperback 12.7694 0.192485 2.91555
thorax 0.445713 0.0425007 2.57755
lowerneck -9.90982 -4.21942 -13.5326
upperneck -7.25371 -3.64716 35.2111
head 1.07163 -1.57184 14.1602
rclavicle 3.18055e-015 7.15625e-015
rhumerus 44.7381 33.8892 -34.4549
rradius 49.9269
rwrist 18.8051
rhand -12.7048 12.9222
rfingers 7.12502
rthumb 13.3777 -16.6283
lclavicle 3.18055e-015 7.15625e-015
lhumerus 57.1726 -36.0283 38.0225
lradius 36.0031
lwrist -4.96729
lhand 2.91968 25.877
lfingers 7.12502
lthumb 28.3838 53.7451
rfemur -29.3454 0.31047 15.9922
rtibia 41.0639
rfoot -18.7624 -5.40244
rtoes -20.1452
lfemur -32.363 -2.70788 -18.7752
ltibia 43.1358
lfoot -16.4692 -2.52625
ltoes -15.0054
2112
root 0.640266 16.6494 -2.33347 6.48348 3.41408 -0.349321
lowerback 24.5498 -0.0604928 1.03853
upperback 12.7526 0.254749 2.96823
thorax 0.407377 0.0782167 2.55001
lowerneck -10.0753 -4.14746 -13.3193
upperneck -7.18294 -3.56392 35.3713
head 1.10223 -1.5169 14.1914
rclavicle 1.98785e-014 2.38542e-014
rhumerus 44.4981 33.7399 -34.6296
rradius 49.9181
rwrist 18.8102
rhand -12.6883 12.9222
rfingers 7.12502
rthumb 13.3936 -16.6272
lclavicle 1.98785e-014 2.38542e-014
lhumerus 57.4808 -36.1024 37.56
lradius 36.1869
lwrist -4.76644
lhand 2.91163 25.9831
lfingers 7.12502
lthumb 28.3761 53.8524
rfemur -29.2788 0.334724 15.8751
rtibia 41.0121
rfoot -18.7586 -5.4532
rtoes -20.2181
lfemur -32.2695 -2.79227 -18.874
ltibia 43.0014
lfoot -16.4148 -2.45834
ltoes -15.531
2113
root 0.643995 16.6508 -2.33338 6.44838 3.47221 -0.342715
lowerback 24.5989 -0.0646835 1.18483
upperback 12.7337 0.2852 3.08454
thorax 0.362796 0.0965973 2.58569
lowerneck -10.226 -4.05079 -13.2448
upperneck -7.10286 -3.43526 35.5365
head 1.12451 -1.43673 14.2607
rclavicle -1.03368e-014 -3.18055e-015
rhumerus 44.3676 33.6729 -34.686
rradius 49.9213
rwrist 18.7738
rhand -12.591 12.97
rfingers 7.12502
rthumb 13.4874 -16.5732
lclavicle -1.03368e-014 -3.18055e-015
lhumerus 57.7453 -36.1415 37.0968
lradius 36.3502
lwrist -4.50696
lhand 2.87419 26.0128
lfingers 7.12502
lthumb 28.3403 53.8881
rfemur -29.2006 0.344342 15.8516
rtibia 40.9692
rfoot -18.7691 -5.48507
rtoes -20.2491
lfemur -32.173 -2.80755 -18.903
ltibia 42.8764
lfoot -16.3659 -2.38567
ltoes -16.238
2114
root 0.647758 16.6547 -2.33121 6.42511 3.49619 -0.191471
lowerback 24.6224 -0.0381535 1.2591
upperback 12.7017 0.337915 3.13141
thorax 0.314251 0.125484 2.58165
lowerneck -10.3099 -3.98658 -13.1016
upperneck -7.01824 -3.36723 35.6433
head 1.14643 -1.39265 14.2828
rclavicle 2.38542e-015 -1.59028e-015
rhumerus 44.1081 33.553 -34.8839
rradius 49.8498
rwrist 18.8621
rhand -12.6455 12.9667
rfingers 7.12502
rthumb 13.4349 -16.58
lclavicle 2.38542e-015 -1.59028e-015
lhumerus 57.9374 -36.1871 36.8168
lradius 36.4616
lwrist -4.40999
lhand 2.94339 25.9341
lfingers 7.12502
lthumb 28.4065 53.7984
rfemur -29.1374 0.372504 15.6553
rtibia 40.959
rfoot -18.7462 -5.51875
rtoes -20.6239
lfemur -32.0512 -2.8764 -19.0845
ltibia 42.734
lfoot -16.3226 -2.32808
ltoes -16.7089
2115
root 0.652651 16.6586 -2.32746 6.40855 3.48514 -0.0367829
lowerback 24.6372 -0.0268041 1.30014
upperback 12.6823 0.363232 3.16976
thorax 0.28482 0.139102 2.59381
lowerneck -10.5217 -3.94529 -12.9396
upperneck -6.81696 -3.36328 35.6999
head 1.2378 -1.361 14.2707
rclavicle -2.94201e-014 -2.94201e-014
rhumerus 44.0013 33.5184 -34.9173
rradius 49.86
rwrist 18.8962
rhand -12.8837 12.8024
rfingers 7.12502
rthumb 13.2053 -16.7594
lclavicle -2.94201e-014 -2.94201e-014
lhumerus 58.1055 -36.1727 36.482
lradius 36.5954
lwrist -4.2095
lhand 3.05988 26.0186
lfingers 7.12502
lthumb 28.5178 53.8643
rfemur -29.0956 0.404505 15.4602
rtibia 40.9626
rfoot -18.7504 -5.58349
rtoes -20.7595
lfemur -31.9266 -2.90361 -19.2742
ltibia 42.6056
lfoot -16.318 -2.35609
ltoes -16.4223
2116
root 0.655795 16.6588 -2.32829 6.42957 3.56827 0.128878
lowerback 24.6493 -0.0238599 1.298
upperback 12.6208 0.372523 3.24521
thorax 0.210009 0.141868 2.67429
lowerneck -10.5182 -3.86034 -12.833
upperneck -6.76243 -3.25929 35.8141
head 1.22673 -1.30824 14.3084
rclavicle -1.11319e-014 2.22639e-014
rhumerus 43.8659 33.5606 -34.8263
rradius 49.9717
rwrist 18.7624
rhand -12.9138 12.7289
rfingers 7.12502
rthumb 13.1763 -16.8347
lclavicle -1.11319e-014 2.22639e-014
lhumerus 58.3491 -36.228 36.0732
lradius 36.6946
lwrist -3.97086
lhand 3.02606 26.1957
lfingers 7.12502
lthumb 28.4855 54.0468
rfemur -29.1012 0.35842 15.2652
rtibia 40.9935
rfoot -18.7152 -5.70116
rtoes -20.2761
lfemur -31.8836 -2.99195 -19.4666
ltibia 42.4854
lfoot -16.3218 -2.33005
ltoes -16.6397
2117
root 0.658014 16.6587 -2.32976 6.49456 3.68864 0.21997
lowerback 24.6117 -0.0410997 1.38029
upperback 12.5722 0.371715 3.32193
thorax 0.174263 0.143561 2.71023
lowerneck -10.517 -3.80547 -12.7525
upperneck -6.79138 -3.17395 35.9679
head 1.20192 -1.27073 14.3692
rclavicle 8.74653e-015 -3.81667e-014
rhumerus 43.7445 33.5485 -34.8049
rradius 50.0114
rwrist 18.6655
rhand -12.9305 12.7891
rfingers 7.12502
rthumb 13.1602 -16.7756
lclavicle 8.74653e-015 -3.81667e-014
lhumerus 58.5584 -36.2149 35.6954
lradius 36.7997
lwrist -3.91865
lhand 2.7746 26.2233
lfingers 7.12502
lthumb 28.2451 54.1143
rfemur -29.1602 0.289673 15.1602
rtibia 41.0391
rfoot -18.7052 -5.81728
rtoes -20.2605
lfemur -31.9305 -3.05372 -19.5732
ltibia 42.3967
lfoot -16.2531 -2.44775
ltoes -15.9553
2118
root 0.661481 16.6598 -2.32976 6.51913 3.73821 0.290215
lowerback 24.6484 -0.056302 1.53879
upperback 12.5354 0.38927 3.359
thorax 0.116288 0.159052 2.65584
lowerneck -10.6447 -3.79726 -12.6838
upperneck -6.75716 -3.16827 36.1607
head 1.24289 -1.25662 14.4429
rclavicle -4.77083e-015 1.19271e-014
rhumerus 43.5808 33.4357 -34.9545
rradius 50.0019
rwrist 18.7842
rhand -12.7619 12.9453
rfingers 7.12502
rthumb 13.3227 -16.6088
lclavicle -4.77083e-015 1.19271e-014
lhumerus 58.6816 -36.1422 35.4316
lradius 36.8964
lwrist -4.00276
lhand 2.73529 26.0182
lfingers 7.12502
lthumb 28.2076 53.9155
rfemur -29.1969 0.308333 15.0655
rtibia 41.0973
rfoot -18.755 -5.92154
rtoes -20.6222
lfemur -31.9183 -3.09533 -19.6531
ltibia 42.3265
lfoot -16.1786 -2.59791
ltoes -14.8703
2119
root 0.665503 16.6592 -2.32836 6.49649 3.7316 0.40735
lowerback 24.689 -0.0509783 1.59823
upperback 12.5068 0.412482 3.40783
thorax 0.0647062 0.171955 2.66943
lowerneck -10.6987 -3.77548 -12.6686
upperneck -6.71438 -3.14386 36.3106
head 1.26596 -1.23757 14.5111
rclavicle 2.46493e-014 3.26007e-014
rhumerus 43.4817 33.3818 -35.0697
rradius 49.972
rwrist 18.8597
rhand -12.7503 13.0349
rfingers 7.12502
rthumb 13.3338 -16.5185
lclavicle 2.46493e-014 3.26007e-014
lhumerus 58.6859 -36.0236 35.3958
lradius 36.9539
lwrist -3.9754
lhand 2.90784 26.1491
lfingers 7.12502
lthumb 28.3725 54.0191
rfemur -29.1829 0.340369 14.911
rtibia 41.1572
rfoot -18.8163 -5.93484
rtoes -20.8045
lfemur -31.8438 -3.05824 -19.8025
ltibia 42.2797
lfoot -16.1012 -2.77386
ltoes -14.1097
